<svg width="40" height="40" viewBox="0 0 40 40" fill="none" xmlns="http://www.w3.org/2000/svg">
<circle cx="20" cy="20" r="20" fill="#1E1F3B"/>
<path fill-rule="evenodd" clip-rule="evenodd" d="M19.9996 11.3333C19.2438 11.3333 18.6311 11.9459 18.6311 12.7017V18.6315H12.7014C11.9457 18.6315 11.333 19.2442 11.333 19.9999C11.333 20.7557 11.9457 21.3684 12.7014 21.3684H18.6311V27.2982C18.6311 28.0539 19.2438 28.6666 19.9996 28.6666C20.7553 28.6666 21.368 28.0539 21.368 27.2982V21.3684H27.2979C28.0537 21.3684 28.6663 20.7557 28.6663 19.9999C28.6663 19.2442 28.0537 18.6315 27.2979 18.6315H21.368V12.7017C21.368 11.9459 20.7553 11.3333 19.9996 11.3333Z" fill="white"/>
</svg>
