<svg width="16" height="12" viewBox="0 0 16 12" fill="none" xmlns="http://www.w3.org/2000/svg">
<path d="M14.9997 0C14.7344 0 14.48 0.114874 14.2924 0.319352C14.1048 0.523829 13.9994 0.80116 13.9994 1.09033V5.45167C13.9994 5.74085 13.894 6.01818 13.7064 6.22265C13.5188 6.42713 13.2644 6.54201 12.9991 6.54201H3.40607L4.70648 5.13547C4.89484 4.93016 5.00066 4.6517 5.00066 4.36134C5.00066 4.07098 4.89484 3.79251 4.70648 3.5872C4.51812 3.38189 4.26264 3.26654 3.99626 3.26654C3.72987 3.26654 3.4744 3.38189 3.28604 3.5872L0.285102 6.8582C0.194033 6.9619 0.122646 7.08417 0.0750369 7.21801C-0.0250123 7.48347 -0.0250123 7.78121 0.0750369 8.04667C0.122646 8.18051 0.194033 8.30278 0.285102 8.40648L3.28604 11.6775C3.37903 11.7797 3.48967 11.8608 3.61156 11.9161C3.73346 11.9715 3.86421 12 3.99626 12C4.12831 12 4.25906 11.9715 4.38096 11.9161C4.50285 11.8608 4.61349 11.7797 4.70648 11.6775C4.80024 11.5761 4.87466 11.4555 4.92544 11.3227C4.97622 11.1898 5.00237 11.0473 5.00237 10.9033C5.00237 10.7594 4.97622 10.6169 4.92544 10.484C4.87466 10.3512 4.80024 10.2306 4.70648 10.1292L3.40607 8.72267H12.9991C13.795 8.72267 14.5583 8.37805 15.121 7.76462C15.6838 7.15119 16 6.3192 16 5.45167V1.09033C16 0.80116 15.8946 0.523829 15.707 0.319352C15.5194 0.114874 15.265 0 14.9997 0Z" fill="#191919"/>
</svg>
