<svg width="269" height="114" viewBox="0 0 269 114" fill="none" xmlns="http://www.w3.org/2000/svg">
<g filter="url(#filter0_d_536_3176)">
<path fill-rule="evenodd" clip-rule="evenodd" d="M264 25.0362C264 13.9905 255.046 5.03613 244 5.03613H25C13.9543 5.03613 5 13.9904 5 25.0361V54.8321C5 65.8778 13.9543 74.8321 25 74.8321H204.855C207.535 82.5989 215.183 88.204 224.199 88.204C233.215 88.204 240.863 82.5989 243.544 74.8321H244C255.046 74.8321 264 65.8778 264 54.8321V25.0362ZM203.388 108.228C197.772 108.228 193.221 103.873 193.221 98.5008C193.221 93.1285 197.772 88.7734 203.388 88.7734C209.003 88.7734 213.555 93.1285 213.555 98.5008C213.555 103.873 209.003 108.228 203.388 108.228Z" fill="white"/>
</g>
<defs>
<filter id="filter0_d_536_3176" x="0" y="0.0361328" width="269" height="113.192" filterUnits="userSpaceOnUse" color-interpolation-filters="sRGB">
<feFlood flood-opacity="0" result="BackgroundImageFix"/>
<feColorMatrix in="SourceAlpha" type="matrix" values="0 0 0 0 0 0 0 0 0 0 0 0 0 0 0 0 0 0 127 0" result="hardAlpha"/>
<feOffset/>
<feGaussianBlur stdDeviation="2.5"/>
<feComposite in2="hardAlpha" operator="out"/>
<feColorMatrix type="matrix" values="0 0 0 0 0 0 0 0 0 0 0 0 0 0 0 0 0 0 0.1 0"/>
<feBlend mode="normal" in2="BackgroundImageFix" result="effect1_dropShadow_536_3176"/>
<feBlend mode="normal" in="SourceGraphic" in2="effect1_dropShadow_536_3176" result="shape"/>
</filter>
</defs>
</svg>
