<svg width="15" height="15" viewBox="0 0 15 15" fill="none" xmlns="http://www.w3.org/2000/svg">
<path d="M14.375 0H4.375C4.20924 0 4.05027 0.0658481 3.93306 0.183058C3.81585 0.300269 3.75 0.45924 3.75 0.625V3.75H0.625C0.45924 3.75 0.300269 3.81585 0.183058 3.93306C0.0658481 4.05027 0 4.20924 0 4.375V14.375C0 14.5408 0.0658481 14.6997 0.183058 14.8169C0.300269 14.9342 0.45924 15 0.625 15H10.625C10.7908 15 10.9497 14.9342 11.0669 14.8169C11.1842 14.6997 11.25 14.5408 11.25 14.375V11.25H14.375C14.5408 11.25 14.6997 11.1842 14.8169 11.0669C14.9342 10.9497 15 10.7908 15 10.625V0.625C15 0.45924 14.9342 0.300269 14.8169 0.183058C14.6997 0.0658481 14.5408 0 14.375 0ZM10 13.75H1.25V5H10V13.75ZM13.75 10H11.25V4.375C11.25 4.20924 11.1842 4.05027 11.0669 3.93306C10.9497 3.81585 10.7908 3.75 10.625 3.75H5V1.25H13.75V10Z" fill="#1E1F3B"/>
</svg>
