<svg width="34" height="34" viewBox="0 0 34 34" fill="none" xmlns="http://www.w3.org/2000/svg">
<path d="M14.6375 5.24933C15.6875 3.43066 18.3125 3.43066 19.3625 5.24933L28.3576 20.8293C29.4076 22.648 28.0951 24.9213 25.9951 24.9213H8.00488C5.90486 24.9213 4.59236 22.648 5.64236 20.8293L14.6375 5.24933Z" fill="#FFBF00" stroke="#191919" stroke-width="1.15733"/>
<path d="M15.9315 19.5319L15.0228 11.4313C14.9898 11.1373 15.2199 10.88 15.5157 10.88H18.4862C18.782 10.88 19.0121 11.1373 18.9791 11.4313L18.0704 19.5319C18.0422 19.7828 17.83 19.9726 17.5775 19.9726H16.4244C16.1719 19.9726 15.9597 19.7828 15.9315 19.5319Z" fill="#191919"/>
<path d="M15.9809 21.944V21.2069C15.9809 20.9329 16.203 20.7109 16.4769 20.7109H17.5249C17.7989 20.7109 18.0209 20.9329 18.0209 21.2069V21.944C18.0209 22.2179 17.7989 22.44 17.5249 22.44H16.4769C16.203 22.44 15.9809 22.2179 15.9809 21.944Z" fill="#191919"/>
</svg>
