<svg width="30" height="33" viewBox="0 0 30 33" fill="none" xmlns="http://www.w3.org/2000/svg">
<path fill-rule="evenodd" clip-rule="evenodd" d="M18.7511 28.9378C18.1779 31.0943 16.1566 32.6878 13.751 32.6878C11.3454 32.6878 9.32409 31.0943 8.75098 28.9378H18.7511Z" fill="#FFA000"/>
<circle cx="23.1251" cy="7.68738" r="6.87513" fill="#FF7362"/>
<path fill-rule="evenodd" clip-rule="evenodd" d="M14.5902 3.62091C13.6509 6.03334 12.8198 10.2594 15.0005 13.3124C17.023 16.144 20.6817 16.9848 22.9983 17.0924C23.1216 17.8636 23.4038 18.3982 23.9681 18.8682C24.0126 18.9052 24.1263 18.9935 24.2494 19.0892C24.4009 19.2068 24.5666 19.3356 24.6357 19.3937C26.5439 20.9842 27.5034 22.5074 27.5003 24.9793C27.4988 26.6248 26.1491 28.0213 24.4775 28.0348H2.98882C1.32898 28.014 0.0122799 26.6045 0.000219365 24.9793C-0.0165863 22.4891 0.932167 20.9918 2.86481 19.3937C2.92996 19.3401 3.07747 19.2144 3.21458 19.0976C3.33147 18.9979 3.44081 18.9048 3.4851 18.8682C4.33608 18.1654 4.58357 17.3404 4.58357 15.8126V12.757C4.58357 7.33035 8.32358 3.59032 13.7503 3.59032C14.035 3.59032 14.315 3.60062 14.5902 3.62091Z" fill="#FFBF00"/>
</svg>
