<svg width="50" height="50" viewBox="0 0 50 50" fill="none" xmlns="http://www.w3.org/2000/svg">
<g clip-path="url(#clip0_1425_354)">
<path d="M43.01 0H6.99C3.12953 0 0 3.12953 0 6.99V43.01C0 46.8705 3.12953 50 6.99 50H43.01C46.8705 50 50 46.8705 50 43.01V6.99C50 3.12953 46.8705 0 43.01 0Z" fill="#E8E8F4"/>
<path d="M36.6203 12.06C36.7937 12.06 36.9653 12.0942 37.1255 12.1605C37.2856 12.2268 37.4311 12.3241 37.5537 12.4466C37.6763 12.5692 37.7735 12.7147 37.8398 12.8749C37.9062 13.035 37.9403 13.2067 37.9403 13.38V36.62C37.9403 36.7934 37.9062 36.965 37.8398 37.1251C37.7735 37.2853 37.6763 37.4308 37.5537 37.5534C37.4311 37.676 37.2856 37.7732 37.1255 37.8395C36.9653 37.9059 36.7937 37.94 36.6203 37.94H13.3803C13.207 37.94 13.0353 37.9059 12.8752 37.8395C12.715 37.7732 12.5695 37.676 12.4469 37.5534C12.3244 37.4308 12.2271 37.2853 12.1608 37.1251C12.0945 36.965 12.0603 36.7934 12.0603 36.62V13.38C12.0603 13.0299 12.1994 12.6942 12.4469 12.4466C12.6945 12.1991 13.0302 12.06 13.3803 12.06H36.6203ZM36.6203 9.57001H13.3803C12.3706 9.57265 11.4031 9.9749 10.6892 10.6888C9.97521 11.4028 9.57295 12.3703 9.57031 13.38V36.62C9.57295 37.6297 9.97521 38.5972 10.6892 39.3112C11.4031 40.0251 12.3706 40.4274 13.3803 40.43H36.6203C37.63 40.4274 38.5975 40.0251 39.3115 39.3112C40.0254 38.5972 40.4277 37.6297 40.4303 36.62V13.38C40.4277 12.3703 40.0254 11.4028 39.3115 10.6888C38.5975 9.9749 37.63 9.57265 36.6203 9.57001Z" fill="#69C188"/>
<path d="M20.1104 17.18C19.5136 17.18 18.9413 17.417 18.5194 17.839C18.0974 18.261 17.8604 18.8333 17.8604 19.43C17.8604 20.0267 18.0974 20.599 18.5194 21.021C18.9413 21.4429 19.5136 21.68 20.1104 21.68C20.6799 21.642 21.2136 21.3889 21.6036 20.9721C21.9935 20.5552 22.2104 20.0058 22.2104 19.435C22.2104 18.8642 21.9935 18.3148 21.6036 17.8979C21.2136 17.4811 20.6799 17.228 20.1104 17.19V17.18Z" fill="#69C188"/>
<path d="M11.2297 35.12L19.1197 26.67C19.391 26.3768 19.7649 26.1995 20.1636 26.1753C20.5623 26.1511 20.955 26.2817 21.2597 26.54L24.1997 29L30.4297 22.52C30.5568 22.3842 30.7094 22.2748 30.8789 22.1982C31.0484 22.1216 31.2313 22.0793 31.4172 22.0738C31.6031 22.0682 31.7883 22.0994 31.9621 22.1657C32.1358 22.232 32.2948 22.332 32.4297 22.46L38.8697 28.33L39.2097 38L37.4697 38.62L12.5697 38.9L10.4697 36.4L11.2297 35.12Z" fill="#69C188"/>
</g>
<defs>
<clipPath id="clip0_1425_354">
<rect width="50" height="50" fill="white"/>
</clipPath>
</defs>
</svg>
