<svg width="50" height="50" viewBox="0 0 50 50" fill="none" xmlns="http://www.w3.org/2000/svg">
<g clip-path="url(#clip0_1425_374)">
<path d="M43.01 0H6.99C3.12953 0 0 3.12953 0 6.99V43.01C0 46.8705 3.12953 50 6.99 50H43.01C46.8705 50 50 46.8705 50 43.01V6.99C50 3.12953 46.8705 0 43.01 0Z" fill="#E8E8F4"/>
<path d="M32.82 24.37C36.5645 24.37 39.6 21.3345 39.6 17.59C39.6 13.8455 36.5645 10.81 32.82 10.81C29.0755 10.81 26.04 13.8455 26.04 17.59C26.04 21.3345 29.0755 24.37 32.82 24.37Z" stroke="#ED7B69" stroke-width="1.6" stroke-linecap="round" stroke-linejoin="round"/>
<path d="M26.0603 16.83C26.0572 15.2886 26.5133 13.7812 27.3703 12.5C27.0203 12.43 26.7303 12.39 26.5103 12.36C26.406 12.35 26.3092 12.3014 26.2389 12.2237C26.1685 12.146 26.1298 12.0448 26.1303 11.94V11.34C26.1381 10.6996 25.8939 10.0819 25.4503 9.62C25.2633 9.42378 25.0383 9.26764 24.789 9.16105C24.5397 9.05447 24.2714 8.99968 24.0003 9C23.6699 9.00012 23.3442 9.07896 23.0503 9.23C22.6515 9.43813 22.3186 9.75331 22.0889 10.1402C21.8593 10.527 21.742 10.9702 21.7503 11.42V12C21.7662 12.1146 21.7392 12.2309 21.6747 12.3269C21.6101 12.4228 21.5124 12.4916 21.4003 12.52C20.2707 12.7254 19.196 13.163 18.2441 13.805C17.2923 14.4471 16.484 15.2796 15.8703 16.25C14.7448 17.9886 14.1537 20.019 14.1703 22.09V29.71C14.1684 29.9147 14.1248 30.1169 14.0423 30.3043C13.9598 30.4917 13.84 30.6603 13.6903 30.8L10.8703 33.44C10.6407 33.6581 10.4829 33.9409 10.418 34.2509C10.353 34.5608 10.3839 34.8832 10.5065 35.1752C10.6292 35.4671 10.8378 35.7149 11.1046 35.8854C11.3714 36.056 11.6838 36.1413 12.0003 36.13H36.3803C36.7041 36.1366 37.0219 36.0416 37.2889 35.8584C37.556 35.6751 37.759 35.4128 37.8693 35.1083C37.9796 34.8038 37.9918 34.4724 37.9041 34.1606C37.8164 33.8488 37.6332 33.5723 37.3803 33.37L34.4403 31C34.2674 30.8604 34.1282 30.6836 34.033 30.4827C33.9378 30.2819 33.889 30.0622 33.8903 29.84V24.66C31.8145 24.6574 29.8244 23.8316 28.3566 22.3637C26.8887 20.8959 26.063 18.9058 26.0603 16.83Z" fill="#ED7B69"/>
<path d="M20.85 37.77C20.7589 37.77 20.6713 37.8055 20.606 37.869C20.5406 37.9324 20.5026 38.0189 20.5 38.11C20.5861 38.9552 21.0017 39.7325 21.6568 40.2734C22.3119 40.8143 23.1538 41.0754 24 41C24.845 41.0695 25.6833 40.8029 26.333 40.2581C26.9827 39.7133 27.3912 38.9342 27.47 38.09C27.47 37.9998 27.4342 37.9133 27.3704 37.8496C27.3067 37.7858 27.2202 37.75 27.13 37.75L20.85 37.77Z" fill="#ED7B69" stroke="#ED7B69" stroke-miterlimit="10"/>
<path d="M32.79 14.34V18" stroke="#ED7B69" stroke-width="1.6" stroke-linecap="round" stroke-linejoin="round"/>
<path d="M32.7896 21.54C33.3088 21.54 33.7296 21.1191 33.7296 20.6C33.7296 20.0808 33.3088 19.66 32.7896 19.66C32.2705 19.66 31.8496 20.0808 31.8496 20.6C31.8496 21.1191 32.2705 21.54 32.7896 21.54Z" fill="#ED7B69"/>
</g>
<defs>
<clipPath id="clip0_1425_374">
<rect width="50" height="50" fill="white"/>
</clipPath>
</defs>
</svg>
