<svg width="50" height="50" viewBox="0 0 50 50" fill="none" xmlns="http://www.w3.org/2000/svg">
<g clip-path="url(#clip0_1142_126)">
<path d="M43.01 0H6.99C3.12953 0 0 3.12953 0 6.99V43.01C0 46.8705 3.12953 50 6.99 50H43.01C46.8705 50 50 46.8705 50 43.01V6.99C50 3.12953 46.8705 0 43.01 0Z" fill="#E8E8F4"/>
<path d="M20.85 37.77C20.7589 37.77 20.6713 37.8055 20.606 37.869C20.5406 37.9324 20.5026 38.0189 20.5 38.11C20.5861 38.9552 21.0017 39.7325 21.6568 40.2734C22.3119 40.8143 23.1538 41.0754 24 41C24.845 41.0695 25.6833 40.8029 26.333 40.2581C26.9827 39.7133 27.3912 38.9342 27.47 38.09C27.47 37.9998 27.4342 37.9133 27.3704 37.8496C27.3067 37.7858 27.2202 37.75 27.13 37.75L20.85 37.77Z" fill="#ED7B69" stroke="#ED7B69" stroke-miterlimit="10"/>
<path d="M37.3603 33.37L34.4403 31C34.2674 30.8604 34.1282 30.6836 34.033 30.4827C33.9378 30.2819 33.889 30.0622 33.8903 29.84V24.66C34.4203 13.06 27.3703 12.5 27.3703 12.5C27.0203 12.43 26.7303 12.39 26.5103 12.36C26.406 12.35 26.3092 12.3014 26.2389 12.2237C26.1685 12.146 26.1298 12.0448 26.1303 11.94V11.34C26.1381 10.6996 25.8939 10.0819 25.4503 9.62C25.2633 9.42378 25.0383 9.26764 24.789 9.16105C24.5397 9.05447 24.2714 8.99968 24.0003 9C23.6699 9.00012 23.3442 9.07896 23.0503 9.23C22.6515 9.43813 22.3186 9.75331 22.0889 10.1402C21.8593 10.527 21.742 10.9702 21.7503 11.42V12C21.7662 12.1146 21.7392 12.2309 21.6747 12.3269C21.6101 12.4228 21.5124 12.4916 21.4003 12.52C20.2707 12.7254 19.196 13.163 18.2441 13.805C17.2923 14.4471 16.484 15.2796 15.8703 16.25C14.7448 17.9886 14.1537 20.019 14.1703 22.09V29.71C14.1684 29.9147 14.1248 30.1169 14.0423 30.3043C13.9598 30.4917 13.84 30.6603 13.6903 30.8L10.8703 33.44C10.6407 33.6581 10.4829 33.9409 10.418 34.2509C10.353 34.5608 10.3839 34.8832 10.5065 35.1752C10.6292 35.4671 10.8378 35.7149 11.1046 35.8854C11.3714 36.056 11.6838 36.1413 12.0003 36.13H36.3803C36.7024 36.1324 37.0172 36.0343 37.281 35.8495C37.5449 35.6646 37.7445 35.4022 37.8523 35.0987C37.9601 34.7951 37.9706 34.4656 37.8824 34.1557C37.7943 33.8459 37.6118 33.5713 37.3603 33.37Z" fill="#ED7B69"/>
<path d="M15.6704 12.88C14.7625 13.09 13.9511 13.598 13.3656 14.323C12.7802 15.048 12.4545 15.9482 12.4404 16.88" stroke="#ED7B69" stroke-linecap="round" stroke-linejoin="round"/>
<path d="M15.0996 10.72C15.0996 10.72 12.2196 10.72 11.3496 14.24" stroke="#ED7B69" stroke-linecap="round" stroke-linejoin="round"/>
</g>
<defs>
<clipPath id="clip0_1142_126">
<rect width="50" height="50" fill="white"/>
</clipPath>
</defs>
</svg>
