<svg width="365" height="61" viewBox="0 0 365 61" fill="none" xmlns="http://www.w3.org/2000/svg">
<rect x="0.225586" y="0.110352" width="364.438" height="60.8604" rx="15" fill="#24292F"/>
<path d="M114.819 28.1788C114.762 27.6059 114.518 27.1608 114.087 26.8436C113.656 26.5263 113.072 26.3677 112.333 26.3677C111.831 26.3677 111.407 26.4387 111.062 26.5808C110.716 26.7181 110.451 26.9099 110.266 27.1561C110.086 27.4023 109.996 27.6816 109.996 27.9941C109.987 28.2546 110.041 28.4818 110.16 28.676C110.283 28.8701 110.451 29.0382 110.664 29.1802C110.877 29.3175 111.123 29.4383 111.403 29.5424C111.682 29.6419 111.98 29.7271 112.298 29.7981L113.604 30.1106C114.239 30.2527 114.821 30.4421 115.352 30.6788C115.882 30.9155 116.341 31.2067 116.729 31.5524C117.118 31.898 117.418 32.3052 117.631 32.774C117.849 33.2427 117.96 33.7801 117.965 34.3862C117.96 35.2763 117.733 36.0481 117.283 36.7015C116.838 37.3502 116.194 37.8545 115.352 38.2143C114.513 38.5694 113.503 38.747 112.319 38.747C111.145 38.747 110.122 38.5671 109.251 38.2072C108.384 37.8474 107.707 37.3147 107.219 36.6092C106.737 35.899 106.483 35.0207 106.46 33.9743H109.435C109.469 34.4619 109.608 34.8691 109.854 35.1958C110.105 35.5178 110.439 35.7617 110.856 35.9274C111.277 36.0884 111.753 36.1689 112.283 36.1689C112.804 36.1689 113.256 36.0931 113.64 35.9416C114.028 35.7901 114.329 35.5794 114.542 35.3095C114.755 35.0396 114.862 34.7295 114.862 34.3791C114.862 34.0524 114.764 33.7778 114.57 33.5552C114.381 33.3327 114.102 33.1433 113.732 32.987C113.368 32.8308 112.92 32.6887 112.39 32.5609L110.806 32.1632C109.58 31.8649 108.612 31.3985 107.901 30.764C107.191 30.1296 106.838 29.2749 106.843 28.2001C106.838 27.3194 107.073 26.55 107.546 25.8919C108.024 25.2337 108.68 24.72 109.513 24.3507C110.347 23.9814 111.294 23.7967 112.354 23.7967C113.434 23.7967 114.376 23.9814 115.181 24.3507C115.991 24.72 116.621 25.2337 117.07 25.8919C117.52 26.55 117.752 27.3123 117.766 28.1788H114.819ZM119.977 38.541V27.6319H123.002V38.541H119.977ZM121.497 26.2257C121.047 26.2257 120.661 26.0765 120.339 25.7782C120.022 25.4752 119.863 25.113 119.863 24.6916C119.863 24.2749 120.022 23.9174 120.339 23.6191C120.661 23.3161 121.047 23.1646 121.497 23.1646C121.947 23.1646 122.33 23.3161 122.647 23.6191C122.969 23.9174 123.13 24.2749 123.13 24.6916C123.13 25.113 122.969 25.4752 122.647 25.7782C122.33 26.0765 121.947 26.2257 121.497 26.2257ZM130.341 42.8592C129.361 42.8592 128.52 42.7243 127.82 42.4544C127.124 42.1892 126.57 41.827 126.158 41.3677C125.746 40.9084 125.478 40.3923 125.355 39.8194L128.153 39.443C128.239 39.6608 128.374 39.8644 128.558 40.0538C128.743 40.2432 128.987 40.3947 129.29 40.5083C129.598 40.6267 129.972 40.6859 130.412 40.6859C131.07 40.6859 131.612 40.5249 132.038 40.2029C132.469 39.8857 132.685 39.353 132.685 38.6049V36.6092H132.557C132.424 36.9122 132.225 37.1987 131.96 37.4686C131.695 37.7385 131.354 37.9586 130.938 38.1291C130.521 38.2995 130.024 38.3848 129.446 38.3848C128.627 38.3848 127.881 38.1954 127.209 37.8166C126.541 37.4331 126.009 36.8483 125.611 36.0623C125.218 35.2716 125.021 34.2725 125.021 33.0652C125.021 31.8294 125.223 30.7972 125.625 29.9686C126.027 29.14 126.563 28.5197 127.23 28.1078C127.902 27.6958 128.639 27.4899 129.439 27.4899C130.05 27.4899 130.561 27.594 130.973 27.8024C131.385 28.006 131.716 28.2617 131.967 28.5694C132.223 28.8725 132.42 29.1708 132.557 29.4643H132.67V27.6319H135.675V38.6475C135.675 39.5756 135.447 40.3521 134.993 40.9771C134.538 41.6021 133.909 42.0708 133.104 42.3833C132.304 42.7006 131.383 42.8592 130.341 42.8592ZM130.405 36.112C130.893 36.112 131.304 35.9913 131.641 35.7498C131.982 35.5036 132.242 35.1532 132.422 34.6987C132.607 34.2394 132.699 33.6902 132.699 33.051C132.699 32.4118 132.609 31.8578 132.429 31.389C132.249 30.9155 131.989 30.5486 131.648 30.2882C131.307 30.0278 130.893 29.8975 130.405 29.8975C129.908 29.8975 129.489 30.0325 129.148 30.3024C128.807 30.5675 128.549 30.9368 128.374 31.4103C128.198 31.8838 128.111 32.4307 128.111 33.051C128.111 33.6807 128.198 34.2252 128.374 34.6845C128.554 35.139 128.812 35.4918 129.148 35.7427C129.489 35.9889 129.908 36.112 130.405 36.112ZM141.108 32.2342V38.541H138.082V27.6319H140.966V29.5566H141.094C141.335 28.9222 141.74 28.4203 142.308 28.051C142.876 27.6769 143.565 27.4899 144.375 27.4899C145.133 27.4899 145.793 27.6556 146.357 27.987C146.92 28.3185 147.358 28.792 147.67 29.4075C147.983 30.0183 148.139 30.7475 148.139 31.595V38.541H145.114V32.1348C145.118 31.4672 144.948 30.9463 144.602 30.5723C144.257 30.1935 143.781 30.0041 143.175 30.0041C142.768 30.0041 142.408 30.0917 142.095 30.2669C141.787 30.4421 141.546 30.6977 141.371 31.0339C141.2 31.3654 141.113 31.7654 141.108 32.2342ZM162.148 33.8961V27.6319H165.174V38.541H162.269V36.5595H162.156C161.909 37.1987 161.5 37.7124 160.927 38.1007C160.359 38.4889 159.665 38.6831 158.846 38.6831C158.117 38.6831 157.475 38.5173 156.921 38.1859C156.367 37.8545 155.934 37.3833 155.621 36.7725C155.314 36.1618 155.157 35.4302 155.153 34.5779V27.6319H158.178V34.0382C158.183 34.6821 158.356 35.1911 158.697 35.5652C159.038 35.9392 159.495 36.1262 160.067 36.1262C160.432 36.1262 160.773 36.0434 161.09 35.8777C161.407 35.7072 161.663 35.4563 161.857 35.1248C162.056 34.7934 162.153 34.3838 162.148 33.8961ZM167.594 42.6319V27.6319H170.577V29.4643H170.712C170.845 29.1708 171.036 28.8725 171.287 28.5694C171.543 28.2617 171.874 28.006 172.282 27.8024C172.694 27.594 173.205 27.4899 173.816 27.4899C174.611 27.4899 175.345 27.6982 176.017 28.1149C176.69 28.5268 177.227 29.1494 177.63 29.9828C178.032 30.8114 178.233 31.8507 178.233 33.1007C178.233 34.3175 178.037 35.345 177.644 36.1831C177.256 37.0164 176.725 37.6485 176.053 38.0794C175.385 38.5055 174.637 38.7186 173.809 38.7186C173.221 38.7186 172.722 38.6215 172.31 38.4274C171.903 38.2333 171.569 37.9894 171.309 37.6958C171.048 37.3975 170.849 37.0969 170.712 36.7939H170.62V42.6319H167.594ZM170.556 33.0865C170.556 33.7351 170.646 34.301 170.826 34.7839C171.006 35.2669 171.266 35.6433 171.607 35.9132C171.948 36.1783 172.362 36.3109 172.85 36.3109C173.342 36.3109 173.759 36.176 174.1 35.9061C174.441 35.6315 174.699 35.2527 174.874 34.7697C175.054 34.282 175.144 33.7209 175.144 33.0865C175.144 32.4567 175.056 31.9028 174.881 31.4245C174.706 30.9463 174.448 30.5723 174.107 30.3024C173.766 30.0325 173.347 29.8975 172.85 29.8975C172.357 29.8975 171.941 30.0278 171.6 30.2882C171.264 30.5486 171.006 30.9179 170.826 31.3961C170.646 31.8743 170.556 32.4378 170.556 33.0865ZM187.031 38.541L184.062 27.6319H187.124L188.814 34.9615H188.913L190.675 27.6319H193.679L195.469 34.9189H195.561L197.223 27.6319H200.277L197.315 38.541H194.112L192.237 31.6802H192.102L190.227 38.541H187.031ZM201.891 38.541V27.6319H204.917V38.541H201.891ZM203.411 26.2257C202.961 26.2257 202.575 26.0765 202.253 25.7782C201.936 25.4752 201.777 25.113 201.777 24.6916C201.777 24.2749 201.936 23.9174 202.253 23.6191C202.575 23.3161 202.961 23.1646 203.411 23.1646C203.861 23.1646 204.244 23.3161 204.561 23.6191C204.883 23.9174 205.044 24.2749 205.044 24.6916C205.044 25.113 204.883 25.4752 204.561 25.7782C204.244 26.0765 203.861 26.2257 203.411 26.2257ZM213.143 27.6319V29.9047H206.573V27.6319H213.143ZM208.065 25.0183H211.09V35.1887C211.09 35.4681 211.133 35.6859 211.218 35.8422C211.303 35.9937 211.422 36.1002 211.573 36.1618C211.729 36.2233 211.909 36.2541 212.113 36.2541C212.255 36.2541 212.397 36.2422 212.539 36.2186C212.681 36.1902 212.79 36.1689 212.866 36.1547L213.342 38.4061C213.19 38.4534 212.977 38.5079 212.702 38.5694C212.428 38.6357 212.094 38.676 211.701 38.6902C210.972 38.7186 210.333 38.6215 209.783 38.399C209.239 38.1764 208.815 37.8308 208.512 37.362C208.209 36.8933 208.06 36.3014 208.065 35.5865V25.0183ZM218.374 32.2342V38.541H215.348V23.9956H218.288V29.5566H218.416C218.662 28.9127 219.06 28.4084 219.609 28.0439C220.159 27.6745 220.848 27.4899 221.676 27.4899C222.434 27.4899 223.094 27.6556 223.658 27.987C224.226 28.3137 224.666 28.7849 224.979 29.4004C225.296 30.0112 225.452 30.7427 225.447 31.595V38.541H222.422V32.1348C222.427 31.4624 222.256 30.9392 221.911 30.5652C221.57 30.1911 221.091 30.0041 220.476 30.0041C220.064 30.0041 219.699 30.0917 219.382 30.2669C219.07 30.4421 218.823 30.6977 218.643 31.0339C218.468 31.3654 218.378 31.7654 218.374 32.2342ZM242.159 28.6973C242.06 28.3516 241.92 28.0462 241.74 27.7811C241.56 27.5112 241.34 27.2839 241.08 27.0993C240.824 26.9099 240.53 26.7654 240.199 26.666C239.872 26.5666 239.51 26.5169 239.112 26.5169C238.369 26.5169 237.715 26.7015 237.152 27.0708C236.593 27.4402 236.158 27.9776 235.845 28.6831C235.533 29.3838 235.376 30.2408 235.376 31.2541C235.376 32.2673 235.53 33.1291 235.838 33.8393C236.146 34.5495 236.581 35.0917 237.145 35.4657C237.708 35.835 238.374 36.0197 239.141 36.0197C239.837 36.0197 240.431 35.8966 240.923 35.6504C241.42 35.3994 241.799 35.0467 242.06 34.5922C242.325 34.1376 242.457 33.6002 242.457 32.9799L243.082 33.0723H239.332V30.7569H245.419V32.5893C245.419 33.8677 245.149 34.9662 244.609 35.8848C244.07 36.7986 243.326 37.5041 242.379 38.0012C241.432 38.4937 240.348 38.7399 239.126 38.7399C237.763 38.7399 236.565 38.4392 235.533 37.8379C234.5 37.2318 233.696 36.3725 233.118 35.2598C232.545 34.1423 232.259 32.8166 232.259 31.2825C232.259 30.1035 232.429 29.0524 232.77 28.1291C233.116 27.2011 233.598 26.4151 234.219 25.7711C234.839 25.1272 235.561 24.6371 236.385 24.301C237.209 23.9648 238.101 23.7967 239.062 23.7967C239.886 23.7967 240.653 23.9174 241.364 24.1589C242.074 24.3957 242.704 24.7318 243.253 25.1674C243.807 25.603 244.259 26.1215 244.609 26.7228C244.96 27.3194 245.185 27.9776 245.284 28.6973H242.159ZM248.356 38.541V27.6319H251.381V38.541H248.356ZM249.876 26.2257C249.426 26.2257 249.04 26.0765 248.718 25.7782C248.401 25.4752 248.242 25.113 248.242 24.6916C248.242 24.2749 248.401 23.9174 248.718 23.6191C249.04 23.3161 249.426 23.1646 249.876 23.1646C250.326 23.1646 250.709 23.3161 251.026 23.6191C251.348 23.9174 251.509 24.2749 251.509 24.6916C251.509 25.113 251.348 25.4752 251.026 25.7782C250.709 26.0765 250.326 26.2257 249.876 26.2257ZM259.608 27.6319V29.9047H253.038V27.6319H259.608ZM254.529 25.0183H257.555V35.1887C257.555 35.4681 257.598 35.6859 257.683 35.8422C257.768 35.9937 257.886 36.1002 258.038 36.1618C258.194 36.2233 258.374 36.2541 258.578 36.2541C258.72 36.2541 258.862 36.2422 259.004 36.2186C259.146 36.1902 259.255 36.1689 259.331 36.1547L259.806 38.4061C259.655 38.4534 259.442 38.5079 259.167 38.5694C258.893 38.6357 258.559 38.676 258.166 38.6902C257.437 38.7186 256.797 38.6215 256.248 38.399C255.704 38.1764 255.28 37.8308 254.977 37.362C254.674 36.8933 254.525 36.3014 254.529 35.5865V25.0183ZM264.838 32.2342V38.541H261.813V23.9956H264.753V29.5566H264.881C265.127 28.9127 265.525 28.4084 266.074 28.0439C266.623 27.6745 267.312 27.4899 268.141 27.4899C268.899 27.4899 269.559 27.6556 270.123 27.987C270.691 28.3137 271.131 28.7849 271.444 29.4004C271.761 30.0112 271.917 30.7427 271.912 31.595V38.541H268.887V32.1348C268.891 31.4624 268.721 30.9392 268.375 30.5652C268.034 30.1911 267.556 30.0041 266.941 30.0041C266.529 30.0041 266.164 30.0917 265.847 30.2669C265.534 30.4421 265.288 30.6977 265.108 31.0339C264.933 31.3654 264.843 31.7654 264.838 32.2342ZM281.289 33.8961V27.6319H284.315V38.541H281.41V36.5595H281.296C281.05 37.1987 280.64 37.7124 280.067 38.1007C279.499 38.4889 278.806 38.6831 277.987 38.6831C277.257 38.6831 276.616 38.5173 276.062 38.1859C275.508 37.8545 275.075 37.3833 274.762 36.7725C274.454 36.1618 274.298 35.4302 274.293 34.5779V27.6319H277.319V34.0382C277.324 34.6821 277.496 35.1911 277.837 35.5652C278.178 35.9392 278.635 36.1262 279.208 36.1262C279.573 36.1262 279.914 36.0434 280.231 35.8777C280.548 35.7072 280.804 35.4563 280.998 35.1248C281.197 34.7934 281.294 34.3838 281.289 33.8961ZM286.792 38.541V23.9956H289.817V29.4643H289.909C290.042 29.1708 290.234 28.8725 290.485 28.5694C290.74 28.2617 291.072 28.006 291.479 27.8024C291.891 27.594 292.402 27.4899 293.013 27.4899C293.809 27.4899 294.542 27.6982 295.215 28.1149C295.887 28.5268 296.425 29.1494 296.827 29.9828C297.23 30.8114 297.431 31.8507 297.431 33.1007C297.431 34.3175 297.234 35.345 296.841 36.1831C296.453 37.0164 295.923 37.6485 295.25 38.0794C294.583 38.5055 293.835 38.7186 293.006 38.7186C292.419 38.7186 291.919 38.6215 291.507 38.4274C291.1 38.2333 290.766 37.9894 290.506 37.6958C290.246 37.3975 290.047 37.0969 289.909 36.7939H289.775V38.541H286.792ZM289.753 33.0865C289.753 33.7351 289.843 34.301 290.023 34.7839C290.203 35.2669 290.463 35.6433 290.804 35.9132C291.145 36.1783 291.56 36.3109 292.047 36.3109C292.54 36.3109 292.956 36.176 293.297 35.9061C293.638 35.6315 293.896 35.2527 294.071 34.7697C294.251 34.282 294.341 33.7209 294.341 33.0865C294.341 32.4567 294.254 31.9028 294.078 31.4245C293.903 30.9463 293.645 30.5723 293.304 30.3024C292.963 30.0325 292.544 29.8975 292.047 29.8975C291.555 29.8975 291.138 30.0278 290.797 30.2882C290.461 30.5486 290.203 30.9179 290.023 31.3961C289.843 31.8743 289.753 32.4378 289.753 33.0865Z" fill="white"/>
<path d="M77.9451 19.1104C71.4734 19.1104 66.2256 24.3573 66.2256 30.8299C66.2256 36.008 69.5836 40.4009 74.2401 41.9506C74.8258 42.059 75.0409 41.6963 75.0409 41.3868C75.0409 41.1074 75.03 40.1841 75.025 39.2048C71.7645 39.9138 71.0765 37.8221 71.0765 37.8221C70.5434 36.4674 69.7753 36.1073 69.7753 36.1073C68.712 35.3799 69.8555 35.3948 69.8555 35.3948C71.0323 35.4775 71.652 36.6025 71.652 36.6025C72.6973 38.3942 74.3936 37.8762 75.0624 37.5768C75.1676 36.8193 75.4713 36.3024 75.8064 36.0097C73.2034 35.7133 70.467 34.7084 70.467 30.2178C70.467 28.9384 70.9248 27.8928 71.6745 27.0721C71.5528 26.7769 71.1517 25.585 71.7881 23.9707C71.7881 23.9707 72.7722 23.6557 75.0118 25.172C75.9465 24.9123 76.9491 24.7821 77.9451 24.7777C78.9411 24.7821 79.9444 24.9123 80.881 25.172C83.1179 23.6557 84.1007 23.9707 84.1007 23.9707C84.7386 25.585 84.3373 26.7769 84.2156 27.0721C84.967 27.8928 85.4217 28.9383 85.4217 30.2178C85.4217 34.719 82.6801 35.7102 80.0704 36.0003C80.4908 36.364 80.8653 37.0773 80.8653 38.1706C80.8653 39.7387 80.8517 41.0007 80.8517 41.3868C80.8517 41.6986 81.0627 42.0641 81.6568 41.949C86.3108 40.3976 89.6645 36.0062 89.6645 30.8299C89.6645 24.3573 84.4174 19.1104 77.9451 19.1104Z" fill="white"/>
<path d="M70.6147 35.8042C70.5889 35.8624 70.4972 35.8798 70.4138 35.84C70.3288 35.8017 70.281 35.7223 70.3086 35.6638C70.3339 35.6039 70.4256 35.5872 70.5104 35.6274C70.5956 35.6656 70.6442 35.7457 70.6147 35.8042ZM71.1912 36.3186C71.1353 36.3704 71.026 36.3463 70.9518 36.2644C70.8752 36.1827 70.8608 36.0735 70.9175 36.0208C70.9752 35.9691 71.0811 35.9933 71.158 36.0751C71.2346 36.1577 71.2495 36.2663 71.1911 36.3186M71.5867 36.9767C71.5148 37.0266 71.3973 36.9798 71.3248 36.8756C71.253 36.7714 71.253 36.6464 71.3264 36.5963C71.3992 36.5462 71.5148 36.5913 71.5883 36.6947C71.66 36.8006 71.66 36.9256 71.5866 36.9768M72.2554 37.7389C72.1912 37.8097 72.0544 37.7907 71.9542 37.694C71.8518 37.5996 71.8233 37.4655 71.8877 37.3946C71.9527 37.3236 72.0903 37.3436 72.1912 37.4394C72.2929 37.5338 72.324 37.6689 72.2555 37.7389M73.1198 37.9963C73.0916 38.088 72.9598 38.1297 72.827 38.0908C72.6945 38.0506 72.6077 37.943 72.6345 37.8503C72.6621 37.7579 72.7944 37.7145 72.9282 37.7562C73.0605 37.7962 73.1475 37.9029 73.1199 37.9963M74.1036 38.1054C74.107 38.2021 73.9944 38.2822 73.855 38.284C73.7148 38.287 73.6015 38.2088 73.6 38.1137C73.6 38.0161 73.7101 37.9367 73.8501 37.9344C73.9895 37.9316 74.1036 38.0093 74.1036 38.1054ZM75.07 38.0683C75.0868 38.1626 74.9899 38.2595 74.8516 38.2852C74.7155 38.3101 74.5896 38.2519 74.5722 38.1584C74.5553 38.0617 74.654 37.9649 74.7898 37.9398C74.9284 37.9157 75.0524 37.9725 75.07 38.0683Z" fill="white"/>
</svg>
