<svg width="393" height="190" viewBox="0 0 393 190" fill="none" xmlns="http://www.w3.org/2000/svg">
<g filter="url(#filter0_bd_2033_340)">
<path d="M19 28C19 22.4772 23.4772 18 29 18H362C367.523 18 372 22.4772 372 28V158C372 163.523 367.523 168 362 168H29C23.4771 168 19 163.523 19 158V28Z" fill="url(#paint0_linear_2033_340)" fill-opacity="0.5" shape-rendering="crispEdges"/>
<path d="M19 28C19 22.4772 23.4772 18 29 18H362C367.523 18 372 22.4772 372 28V158C372 163.523 367.523 168 362 168H29C23.4771 168 19 163.523 19 158V28Z" fill="white" fill-opacity="0.1" shape-rendering="crispEdges"/>
<path d="M29 18.4728H362C367.262 18.4728 371.527 22.7383 371.527 28V158C371.527 163.262 367.262 167.527 362 167.527H29C23.7383 167.527 19.4728 163.262 19.4728 158V28C19.4728 22.7383 23.7383 18.4728 29 18.4728Z" stroke="url(#paint1_linear_2033_340)" stroke-opacity="0.25" stroke-width="0.945614" shape-rendering="crispEdges"/>
</g>
<defs>
<filter id="filter0_bd_2033_340" x="-21.5263" y="-22.5263" width="434.053" height="231.053" filterUnits="userSpaceOnUse" color-interpolation-filters="sRGB">
<feFlood flood-opacity="0" result="BackgroundImageFix"/>
<feGaussianBlur in="BackgroundImageFix" stdDeviation="20.2632"/>
<feComposite in2="SourceAlpha" operator="in" result="effect1_backgroundBlur_2033_340"/>
<feColorMatrix in="SourceAlpha" type="matrix" values="0 0 0 0 0 0 0 0 0 0 0 0 0 0 0 0 0 0 127 0" result="hardAlpha"/>
<feOffset dx="1" dy="2"/>
<feGaussianBlur stdDeviation="10"/>
<feComposite in2="hardAlpha" operator="out"/>
<feColorMatrix type="matrix" values="0 0 0 0 0 0 0 0 0 0 0 0 0 0 0 0 0 0 0.15 0"/>
<feBlend mode="normal" in2="effect1_backgroundBlur_2033_340" result="effect2_dropShadow_2033_340"/>
<feBlend mode="normal" in="SourceGraphic" in2="effect2_dropShadow_2033_340" result="shape"/>
</filter>
<linearGradient id="paint0_linear_2033_340" x1="35.245" y1="31.0567" x2="291.874" y2="243.599" gradientUnits="userSpaceOnUse">
<stop stop-color="white"/>
<stop offset="1" stop-color="white" stop-opacity="0.3"/>
</linearGradient>
<linearGradient id="paint1_linear_2033_340" x1="19" y1="29.8421" x2="302.879" y2="249.886" gradientUnits="userSpaceOnUse">
<stop stop-color="white"/>
<stop offset="1" stop-color="white" stop-opacity="0"/>
</linearGradient>
</defs>
</svg>
