<svg width="34" height="34" viewBox="0 0 34 34" fill="none" xmlns="http://www.w3.org/2000/svg">
<circle cx="17" cy="17" r="17" fill="#A8AEEB"/>
<path d="M17 20.6552C18.3487 20.6538 19.6417 20.1858 20.5953 19.3538C21.549 18.5219 22.0854 17.3938 22.087 16.2172V11.4379C22.087 10.2609 21.551 9.13211 20.597 8.29984C19.643 7.46757 18.3491 7 17 7C15.6509 7 14.357 7.46757 13.403 8.29984C12.449 9.13211 11.913 10.2609 11.913 11.4379V16.2172C11.9146 17.3938 12.451 18.5219 13.4047 19.3538C14.3583 20.1858 15.6513 20.6538 17 20.6552ZM14.2609 11.4379C14.2609 10.8042 14.5495 10.1963 15.0631 9.74819C15.5768 9.30004 16.2735 9.04828 17 9.04828C17.7265 9.04828 18.4232 9.30004 18.9369 9.74819C19.4505 10.1963 19.7391 10.8042 19.7391 11.4379V16.2172C19.7391 16.851 19.4505 17.4588 18.9369 17.907C18.4232 18.3551 17.7265 18.6069 17 18.6069C16.2735 18.6069 15.5768 18.3551 15.0631 17.907C14.5495 17.4588 14.2609 16.851 14.2609 16.2172V11.4379ZM18.1739 24.0024V25.7759C18.1739 26.0475 18.0502 26.308 17.8301 26.5C17.6099 26.6921 17.3113 26.8 17 26.8C16.6887 26.8 16.3901 26.6921 16.1699 26.5C15.9498 26.308 15.8261 26.0475 15.8261 25.7759V24.0024C13.6622 23.7515 11.6762 22.824 10.2369 21.3922C8.7976 19.9605 8.00277 18.1216 8 16.2172C8 15.9456 8.12368 15.6851 8.34383 15.4931C8.56398 15.301 8.86257 15.1931 9.17391 15.1931C9.48525 15.1931 9.78384 15.301 10.004 15.4931C10.2241 15.6851 10.3478 15.9456 10.3478 16.2172C10.3478 17.7564 11.0487 19.2325 12.2962 20.3209C13.5437 21.4093 15.2357 22.0207 17 22.0207C18.7643 22.0207 20.4563 21.4093 21.7038 20.3209C22.9513 19.2325 23.6522 17.7564 23.6522 16.2172C23.6522 15.9456 23.7759 15.6851 23.996 15.4931C24.2162 15.301 24.5147 15.1931 24.8261 15.1931C25.1374 15.1931 25.436 15.301 25.6562 15.4931C25.8763 15.6851 26 15.9456 26 16.2172C25.9972 18.1216 25.2024 19.9605 23.7631 21.3922C22.3238 22.824 20.3378 23.7515 18.1739 24.0024Z" fill="white"/>
</svg>

