<svg width="34" height="34" viewBox="0 0 34 34" fill="none" xmlns="http://www.w3.org/2000/svg">
<path d="M34 17C34 26.3888 26.3888 34 17 34C7.61116 34 0 26.3888 0 17C0 7.61116 7.61116 0 17 0C26.3888 0 34 7.61116 34 17Z" fill="#A8AEEB"/>
<path d="M25.1 9H9.9C8.85066 9 8 9.82703 8 10.8472V20.0833C8 21.1035 8.85066 21.9306 9.9 21.9306H25.1C26.1493 21.9306 27 21.1035 27 20.0833V10.8472C27 9.82703 26.1493 9 25.1 9Z" stroke="white" stroke-width="2" stroke-linecap="round" stroke-linejoin="round"/>
<path d="M13.7002 25.625H21.3002M17.5002 21.9306V25.625M17.5002 18.2361V12.6945M17.5002 12.6945L14.6502 15.4653M17.5002 12.6945L20.3502 15.4653" stroke="white" stroke-width="2" stroke-linecap="round" stroke-linejoin="round"/>
</svg>

