<svg width="35" height="35" viewBox="0 0 35 35" fill="none" xmlns="http://www.w3.org/2000/svg">
<path d="M4.33077 6.97981C5.36038 5.84592 6.5378 4.85557 7.83137 4.03536C7.31754 3.88773 6.79071 3.78976 6.25815 3.74278C5.19194 3.66265 4.72407 3.91609 4.52463 4.11549C4.32704 4.3149 4.07353 4.78079 4.15182 5.84862C4.17978 6.18965 4.23757 6.56796 4.33077 6.97981ZM33.0439 22.345C33.1576 22.5742 33.2676 22.8015 33.3739 23.027C34.2611 24.9279 34.8483 26.7877 34.975 28.4575C35.0999 30.1179 34.7775 31.8492 33.5211 33.1052C32.2648 34.3613 30.5331 34.6837 28.8704 34.5588C27.4165 34.447 25.819 33.9886 24.1731 33.286H24.1675C23.878 33.1629 23.5909 33.0343 23.3064 32.9002C19.5168 31.1075 15.1812 27.9543 11.112 23.8843C7.04663 19.8198 3.89459 15.4889 2.09955 11.704C1.96348 11.4151 1.833 11.1263 1.70997 10.8411L1.71184 10.8374C1.00538 9.18814 0.54497 7.58547 0.434994 6.12815C0.308241 4.46585 0.630714 2.73645 1.88892 1.47854C3.1434 0.222489 4.87506 -0.0999086 6.53775 0.0249508C8.2079 0.151674 10.0645 0.7387 11.9676 1.62762C12.1987 1.73385 12.4299 1.84566 12.6629 1.96307C15.4794 1.24997 18.4329 1.28075 21.234 2.0524C24.035 2.82404 26.5875 4.31007 28.6411 6.36483C30.6973 8.41857 32.1843 10.9714 32.9561 13.7728C33.728 16.5743 33.7582 19.5283 33.0439 22.345ZM30.9693 27.1772C30.1527 28.4672 29.1644 29.6402 28.0316 30.664C28.438 30.7571 28.8126 30.8168 29.15 30.841C30.2181 30.923 30.686 30.6696 30.8835 30.4683C31.0849 30.2707 31.3384 29.803 31.2563 28.7352C31.2104 28.2079 31.1143 27.6862 30.9693 27.1772ZM4.91607 30.0844C2.91353 28.0844 1.45015 25.6101 0.662352 22.8921C-0.125445 20.174 -0.211999 17.3008 0.410762 14.5403C2.42762 18.2302 5.4529 22.181 9.13431 25.8615C12.8195 29.5458 16.773 32.5704 20.4675 34.5886C17.7058 35.2119 14.8312 35.1257 12.1118 34.3381C9.39239 33.5505 6.91685 32.0871 4.91607 30.0844Z" fill="#9985FE"/>
</svg>
