<svg width="30" height="30" viewBox="0 0 30 30" fill="none" xmlns="http://www.w3.org/2000/svg">
<path d="M3.71209 5.98269C4.59462 5.01079 5.60383 4.16192 6.71261 3.45888C6.27218 3.33234 5.82061 3.24836 5.36413 3.2081C4.45023 3.13941 4.04921 3.35665 3.87825 3.52757C3.70889 3.69848 3.4916 4.09782 3.55871 5.0131C3.58267 5.30542 3.6322 5.62968 3.71209 5.98269ZM28.3234 19.1528C28.4208 19.3493 28.5151 19.5442 28.6062 19.7375C29.3667 21.3668 29.87 22.9609 29.9786 24.3921C30.0857 25.8154 29.8093 27.2993 28.7324 28.3759C27.6555 29.4525 26.1712 29.7289 24.7461 29.6219C23.4999 29.526 22.1306 29.1331 20.7198 28.5309H20.715C20.4669 28.4254 20.2208 28.3151 19.9769 28.2002C16.7287 26.6636 13.0124 23.9608 9.52459 20.4722C6.03997 16.9884 3.33822 13.2762 1.79962 10.032C1.68298 9.78438 1.57114 9.53679 1.46569 9.2924L1.46729 9.2892C0.861754 7.87555 0.467117 6.50183 0.372852 5.2527C0.264207 3.82787 0.540612 2.34553 1.61907 1.26732C2.69434 0.190705 4.17862 -0.085636 5.60379 0.0213864C7.03535 0.130006 8.62667 0.633171 10.2579 1.39511C10.4561 1.48616 10.6542 1.582 10.8539 1.68263C13.2681 1.0714 15.7997 1.09779 18.2006 1.7592C20.6015 2.42061 22.7893 3.69434 24.5496 5.45557C26.312 7.21592 27.5865 9.40403 28.2481 11.8053C28.9097 14.2066 28.9356 16.7385 28.3234 19.1528ZM26.5451 23.2948C25.8452 24.4005 24.9981 25.4059 24.0271 26.2834C24.3754 26.3633 24.6965 26.4144 24.9857 26.4351C25.9012 26.5054 26.3023 26.2882 26.4716 26.1157C26.6442 25.9464 26.8615 25.5454 26.7912 24.6301C26.7518 24.1782 26.6694 23.7311 26.5451 23.2948ZM4.21377 25.7866C2.49732 24.0724 1.24298 21.9515 0.56773 19.6218C-0.107524 17.292 -0.181713 14.8293 0.352081 12.4631C2.08081 15.6259 4.67391 19.0123 7.82941 22.167C10.9881 25.325 14.3769 27.9175 17.5436 29.6474C15.1764 30.1817 12.7124 30.1078 10.3815 29.4327C8.05062 28.7575 5.92873 27.5032 4.21377 25.7866Z" fill="#4D62AE"/>
</svg>
