<svg width="34" height="34" viewBox="0 0 34 34" fill="none" xmlns="http://www.w3.org/2000/svg">
<circle cx="17" cy="17" r="17" fill="#A9A9A9"/>
<path d="M19.3164 7.10868C19.1314 7.02074 18.9247 6.98506 18.7199 7.0057C18.515 7.02634 18.3203 7.10247 18.1577 7.22542L11.8557 11.9907H7.83333C7.3471 11.9907 6.88079 12.1785 6.53697 12.5128C6.19315 12.847 6 13.3004 6 13.7731V19.4768C6 19.9496 6.19315 20.4029 6.53697 20.7372C6.88079 21.0715 7.3471 21.2593 7.83333 21.2593H11.8557L18.1577 26.0245C18.3203 26.1475 18.5151 26.2237 18.7199 26.2443C18.9248 26.2649 19.1315 26.2293 19.3165 26.1413C19.5015 26.0534 19.6574 25.9167 19.7665 25.7469C19.8755 25.577 19.9333 25.3808 19.9333 25.1806V8.0694C19.9333 7.86917 19.8755 7.67297 19.7664 7.50312C19.6574 7.33328 19.5014 7.19661 19.3164 7.10868ZM8.2 14.1296H11.1333V19.1204H8.2V14.1296ZM17.7333 22.9935L13.3333 19.6667V13.5833L17.7333 10.2564V22.9935ZM24.3333 16.625C24.3335 17.5803 23.9749 18.5028 23.325 19.2193C23.2294 19.3246 23.1134 19.4106 22.9837 19.4724C22.8539 19.5341 22.7129 19.5704 22.5687 19.5792C22.4245 19.588 22.28 19.569 22.1433 19.5235C22.0066 19.4779 21.8805 19.4067 21.7722 19.3138C21.6638 19.2208 21.5754 19.1081 21.5119 18.9819C21.4483 18.8557 21.411 18.7187 21.402 18.5785C21.393 18.4383 21.4124 18.2977 21.4593 18.1649C21.5061 18.032 21.5794 17.9094 21.675 17.804C21.9697 17.4786 22.1322 17.0599 22.1322 16.6263C22.1322 16.1927 21.9697 15.774 21.675 15.4486C21.4918 15.2346 21.4017 14.9596 21.4238 14.682C21.4459 14.4044 21.5785 14.1462 21.7934 13.9621C22.0082 13.7781 22.2884 13.6828 22.5744 13.6964C22.8604 13.71 23.1297 13.8315 23.325 14.0351C23.9743 14.7502 24.3329 15.6711 24.3333 16.625ZM28 16.625C28.0011 18.4666 27.3029 20.2438 26.0392 21.6157C25.8448 21.8272 25.5718 21.9548 25.2805 21.9706C24.9892 21.9864 24.7034 21.889 24.486 21.7C24.2685 21.5109 24.1372 21.2455 24.1209 20.9623C24.1047 20.6791 24.2048 20.4012 24.3993 20.1898C25.3012 19.2094 25.7999 17.9403 25.7999 16.625C25.7999 15.3097 25.3012 14.0405 24.3993 13.0602C24.2991 12.9562 24.2212 12.8338 24.1704 12.7001C24.1195 12.5665 24.0966 12.4243 24.103 12.2819C24.1094 12.1395 24.1451 11.9998 24.2078 11.871C24.2706 11.7422 24.3592 11.6269 24.4684 11.5319C24.5776 11.4368 24.7053 11.364 24.8439 11.3176C24.9825 11.2712 25.1293 11.2522 25.2755 11.2618C25.4218 11.2713 25.5646 11.3092 25.6956 11.3731C25.8266 11.4371 25.9431 11.5259 26.0383 11.6342C27.3023 13.006 28.0009 14.7832 28 16.625Z" fill="white"/>
<path d="M6 28.2133L27.2132 7.00005" stroke="white" stroke-linecap="round"/>
</svg>
