<svg width="36" height="20" viewBox="0 0 36 20" fill="none" xmlns="http://www.w3.org/2000/svg">
<rect width="36" height="20" rx="3.77493" fill="#4D62AE"/>
<path d="M23.7409 5.38461C23.5378 5.38461 23.3429 5.46566 23.1993 5.60992C23.0557 5.75417 22.975 5.94983 22.975 6.15384V9.23077C22.975 9.43478 22.8943 9.63044 22.7506 9.7747C22.607 9.91895 22.4121 10 22.209 10H14.8635L15.8592 9.00769C16.0034 8.86284 16.0845 8.66638 16.0845 8.46154C16.0845 8.25669 16.0034 8.06023 15.8592 7.91538C15.715 7.77053 15.5194 7.68916 15.3154 7.68916C15.1114 7.68916 14.9158 7.77053 14.7716 7.91538L12.4737 10.2231C12.4039 10.2962 12.3493 10.3825 12.3128 10.4769C12.2362 10.6642 12.2362 10.8743 12.3128 11.0615C12.3493 11.156 12.4039 11.2422 12.4737 11.3154L14.7716 13.6231C14.8428 13.6952 14.9275 13.7524 15.0208 13.7915C15.1142 13.8305 15.2143 13.8506 15.3154 13.8506C15.4165 13.8506 15.5166 13.8305 15.61 13.7915C15.7033 13.7524 15.788 13.6952 15.8592 13.6231C15.931 13.5516 15.988 13.4665 16.0269 13.3727C16.0658 13.279 16.0858 13.1785 16.0858 13.0769C16.0858 12.9754 16.0658 12.8748 16.0269 12.7811C15.988 12.6874 15.931 12.6023 15.8592 12.5308L14.8635 11.5385H22.209C22.8184 11.5385 23.4029 11.2953 23.8338 10.8626C24.2648 10.4298 24.5069 9.84281 24.5069 9.23077V6.15384C24.5069 5.94983 24.4262 5.75417 24.2825 5.60992C24.1389 5.46566 23.9441 5.38461 23.7409 5.38461Z" fill="#EEEEFA"/>
</svg>
