<svg width="90" height="32" viewBox="0 0 90 32" fill="none" xmlns="http://www.w3.org/2000/svg">
<g clip-path="url(#clip0_1741_125)">
<rect width="90" height="32" rx="16" fill="#FF7362"/>
<circle cx="18" cy="16" r="13" fill="white"/>
<path d="M44.162 24.286C40.114 24.286 37.276 21.052 37.276 15.882C37.276 10.712 40.114 7.566 44.162 7.566C48.21 7.566 51.048 10.712 51.048 15.882C51.048 21.052 48.21 24.286 44.162 24.286ZM44.162 22.504C47.044 22.504 48.958 19.908 48.958 15.882C48.958 11.834 47.044 9.348 44.162 9.348C41.258 9.348 39.366 11.834 39.366 15.882C39.366 19.908 41.258 22.504 44.162 22.504ZM54.5281 24V7.852H63.8341V9.59H56.5741V15.046H62.7341V16.762H56.5741V24H54.5281ZM66.6668 24V7.852H75.9728V9.59H68.7128V15.046H74.8728V16.762H68.7128V24H66.6668Z" fill="white"/>
</g>
<defs>
<clipPath id="clip0_1741_125">
<rect width="90" height="32" rx="16" fill="white"/>
</clipPath>
</defs>
</svg>
