<svg width="90" height="32" viewBox="0 0 90 32" fill="none" xmlns="http://www.w3.org/2000/svg">
<g clip-path="url(#clip0_1741_129)">
<rect width="90" height="32" rx="16" fill="#A9A9A9"/>
<circle cx="71" cy="16" r="13" fill="white"/>
<path d="M25.162 24.286C21.114 24.286 18.276 21.052 18.276 15.882C18.276 10.712 21.114 7.566 25.162 7.566C29.21 7.566 32.048 10.712 32.048 15.882C32.048 21.052 29.21 24.286 25.162 24.286ZM25.162 22.504C28.044 22.504 29.958 19.908 29.958 15.882C29.958 11.834 28.044 9.348 25.162 9.348C22.258 9.348 20.366 11.834 20.366 15.882C20.366 19.908 22.258 22.504 25.162 22.504ZM35.5281 24V7.852H37.6401L43.5141 18.038L45.2301 21.36H45.3401C45.2301 19.732 45.0761 17.928 45.0761 16.256V7.852H47.0121V24H44.9221L39.0481 13.814L37.3101 10.492H37.2221C37.3101 12.12 37.4641 13.836 37.4641 15.53V24H35.5281Z" fill="white"/>
</g>
<defs>
<clipPath id="clip0_1741_129">
<rect width="90" height="32" rx="16" fill="white"/>
</clipPath>
</defs>
</svg>
