<svg width="405" height="154" viewBox="0 0 405 154" fill="none" xmlns="http://www.w3.org/2000/svg">
<g filter="url(#filter0_iii_1080_3121)">
<rect width="404.574" height="153.566" rx="15" fill="url(#paint0_linear_1080_3121)" fill-opacity="0.1"/>
<rect width="404.574" height="153.566" rx="15" fill="#EEEEFA" fill-opacity="0.15"/>
</g>
<g filter="url(#filter1_i_1080_3121)">
<rect x="4.67676" y="4.67712" width="395.219" height="144.212" rx="15" stroke="url(#paint1_linear_1080_3121)" stroke-width="4"/>
</g>
<circle cx="363.648" cy="112.641" r="12.8622" fill="white"/>
<path fill-rule="evenodd" clip-rule="evenodd" d="M324.923 125.184C325.845 125.393 326.804 125.504 327.789 125.504C334.893 125.504 340.651 119.745 340.651 112.642C340.651 105.538 334.893 99.7791 327.789 99.7791C326.323 99.7791 324.915 100.024 323.603 100.476C319.052 109.751 321.414 118.9 324.923 125.184Z" fill="#FFE599"/>
<path fill-rule="evenodd" clip-rule="evenodd" d="M323.603 100.476C319.052 109.752 321.414 118.9 324.924 125.184C319.199 123.881 314.927 118.76 314.927 112.642C314.927 107.003 318.555 102.213 323.603 100.476Z" fill="white"/>
<path fill-rule="evenodd" clip-rule="evenodd" d="M291.932 125.503V99.7791C299.035 99.7792 304.794 105.538 304.794 112.641C304.794 119.745 299.035 125.503 291.932 125.503Z" fill="white"/>
<path fill-rule="evenodd" clip-rule="evenodd" d="M291.932 99.7791L291.932 125.503C284.828 125.503 279.07 119.745 279.07 112.641C279.07 105.538 284.828 99.7793 291.932 99.7791Z" fill="#FFE599"/>
<path fill-rule="evenodd" clip-rule="evenodd" d="M258.939 100.099C258.018 99.8898 257.059 99.7792 256.074 99.7792C248.971 99.7792 243.212 105.538 243.212 112.641C243.212 119.745 248.971 125.504 256.074 125.504C257.539 125.504 258.948 125.258 260.26 124.807C264.811 115.531 262.449 106.383 258.939 100.099Z" fill="#FFE599"/>
<path fill-rule="evenodd" clip-rule="evenodd" d="M260.259 124.807C264.81 115.531 262.448 106.383 258.938 100.099C264.663 101.402 268.936 106.523 268.936 112.641C268.936 118.28 265.308 123.071 260.259 124.807Z" fill="white"/>
<circle cx="220.216" cy="112.641" r="12.8622" fill="#FFE599"/>
<circle cx="184.357" cy="112.641" r="12.8622" fill="white"/>
<path fill-rule="evenodd" clip-rule="evenodd" d="M145.633 125.184C146.554 125.393 147.513 125.504 148.498 125.504C155.602 125.504 161.36 119.745 161.36 112.642C161.36 105.538 155.602 99.7791 148.498 99.7791C147.033 99.7791 145.625 100.024 144.312 100.475C139.761 109.751 142.123 118.9 145.633 125.184Z" fill="#FFE599"/>
<path fill-rule="evenodd" clip-rule="evenodd" d="M144.313 100.476C139.762 109.752 142.124 118.9 145.634 125.184C139.909 123.881 135.637 118.761 135.637 112.642C135.637 107.004 139.265 102.213 144.313 100.476Z" fill="white"/>
<path fill-rule="evenodd" clip-rule="evenodd" d="M112.642 125.504V99.7793C119.745 99.7794 125.504 105.538 125.504 112.641C125.504 119.745 119.745 125.504 112.642 125.504Z" fill="white"/>
<path fill-rule="evenodd" clip-rule="evenodd" d="M112.642 99.7791L112.642 125.503C105.538 125.503 99.7797 119.745 99.7797 112.641C99.7797 105.538 105.538 99.7793 112.642 99.7791Z" fill="#FFE599"/>
<path fill-rule="evenodd" clip-rule="evenodd" d="M79.6476 100.1C78.7261 99.8899 77.767 99.7792 76.7821 99.7792C69.6785 99.7792 63.9199 105.538 63.9199 112.641C63.9199 119.745 69.6785 125.504 76.7821 125.504C78.2476 125.504 79.6559 125.258 80.9682 124.807C85.5191 115.531 83.157 106.383 79.6476 100.1Z" fill="#FFE599"/>
<path fill-rule="evenodd" clip-rule="evenodd" d="M80.9671 124.807C85.5181 115.531 83.1559 106.383 79.6465 100.099C85.3711 101.402 89.6437 106.523 89.6437 112.641C89.6437 118.28 86.0159 123.071 80.9671 124.807Z" fill="white"/>
<circle cx="40.9247" cy="112.641" r="12.8622" fill="#FFE599"/>
<circle cx="363.648" cy="76.7832" r="12.8622" fill="white"/>
<path fill-rule="evenodd" clip-rule="evenodd" d="M324.923 89.3254C325.845 89.5351 326.804 89.6458 327.789 89.6458C334.893 89.6458 340.651 83.8871 340.651 76.7834C340.651 69.6797 334.893 63.921 327.789 63.921C326.323 63.921 324.915 64.1661 323.603 64.6175C319.052 73.8933 321.414 83.0418 324.923 89.3254Z" fill="#FFE599"/>
<path fill-rule="evenodd" clip-rule="evenodd" d="M323.603 64.6176C319.052 73.8935 321.414 83.042 324.924 89.3256C319.199 88.0232 314.927 82.9023 314.927 76.7835C314.927 71.1453 318.555 66.3544 323.603 64.6176Z" fill="white"/>
<path fill-rule="evenodd" clip-rule="evenodd" d="M291.932 89.6453V63.921C299.035 63.9211 304.794 69.6796 304.794 76.7831C304.794 83.8866 299.035 89.6452 291.932 89.6453Z" fill="white"/>
<path fill-rule="evenodd" clip-rule="evenodd" d="M291.932 63.921L291.932 89.6453C284.828 89.6452 279.07 83.8867 279.07 76.7832C279.07 69.6797 284.828 63.9211 291.932 63.921Z" fill="#FFE599"/>
<path fill-rule="evenodd" clip-rule="evenodd" d="M258.939 64.2413C258.018 64.0317 257.059 63.921 256.074 63.921C248.971 63.921 243.212 69.6796 243.212 76.7832C243.212 83.8868 248.971 89.6454 256.074 89.6454C257.539 89.6454 258.948 89.4003 260.26 88.9489C264.811 79.6732 262.449 70.5248 258.939 64.2413Z" fill="#FFE599"/>
<path fill-rule="evenodd" clip-rule="evenodd" d="M260.259 88.949C264.81 79.6732 262.448 70.5248 258.938 64.2413C264.663 65.5435 268.936 70.6644 268.936 76.7832C268.936 82.4215 265.308 87.2124 260.259 88.949Z" fill="white"/>
<circle cx="220.216" cy="76.7832" r="12.8622" fill="#FFE599"/>
<circle cx="184.357" cy="76.7832" r="12.8622" fill="white"/>
<path fill-rule="evenodd" clip-rule="evenodd" d="M145.633 89.3255C146.554 89.5351 147.513 89.6458 148.498 89.6458C155.602 89.6458 161.36 83.8871 161.36 76.7834C161.36 69.6797 155.602 63.921 148.498 63.921C147.033 63.921 145.625 64.166 144.312 64.6173C139.761 73.8932 142.123 83.0419 145.633 89.3255Z" fill="#FFE599"/>
<path fill-rule="evenodd" clip-rule="evenodd" d="M144.313 64.6177C139.762 73.8936 142.124 83.0421 145.634 89.3257C139.909 88.0233 135.637 82.9024 135.637 76.7836C135.637 71.1454 139.265 66.3545 144.313 64.6177Z" fill="white"/>
<path fill-rule="evenodd" clip-rule="evenodd" d="M112.642 89.6455V63.9211C119.745 63.9213 125.504 69.6798 125.504 76.7833C125.504 83.8868 119.745 89.6453 112.642 89.6455Z" fill="white"/>
<path fill-rule="evenodd" clip-rule="evenodd" d="M112.642 63.921L112.642 89.6453C105.538 89.6452 99.7797 83.8867 99.7797 76.7832C99.7797 69.6797 105.538 63.9211 112.642 63.921Z" fill="#FFE599"/>
<path fill-rule="evenodd" clip-rule="evenodd" d="M79.6476 64.2414C78.7261 64.0317 77.767 63.921 76.7821 63.921C69.6785 63.921 63.9199 69.6796 63.9199 76.7832C63.9199 83.8868 69.6785 89.6454 76.7821 89.6454C78.2476 89.6454 79.6559 89.4002 80.9682 88.9488C85.5191 79.6731 83.157 70.5248 79.6476 64.2414Z" fill="#FFE599"/>
<path fill-rule="evenodd" clip-rule="evenodd" d="M80.9671 88.949C85.5181 79.6732 83.1559 70.5248 79.6465 64.2413C85.3711 65.5435 89.6437 70.6644 89.6437 76.7832C89.6437 82.4215 86.0159 87.2124 80.9671 88.949Z" fill="white"/>
<circle cx="40.9247" cy="76.7832" r="12.8622" fill="#FFE599"/>
<circle cx="363.648" cy="40.925" r="12.8622" fill="white"/>
<path fill-rule="evenodd" clip-rule="evenodd" d="M324.923 53.4673C325.845 53.6769 326.804 53.7877 327.789 53.7877C334.893 53.7877 340.651 48.029 340.651 40.9252C340.651 33.8215 334.893 28.0628 327.789 28.0628C326.323 28.0628 324.915 28.3079 323.603 28.7593C319.052 38.0351 321.414 47.1836 324.923 53.4673Z" fill="#FFE599"/>
<path fill-rule="evenodd" clip-rule="evenodd" d="M323.603 28.7595C319.052 38.0353 321.414 47.1838 324.924 53.4674C319.199 52.165 314.927 47.0441 314.927 40.9253C314.927 35.2871 318.555 30.4962 323.603 28.7595Z" fill="white"/>
<path fill-rule="evenodd" clip-rule="evenodd" d="M291.932 53.7871V28.0628C299.035 28.0629 304.794 33.8215 304.794 40.925C304.794 48.0285 299.035 53.787 291.932 53.7871Z" fill="white"/>
<path fill-rule="evenodd" clip-rule="evenodd" d="M291.932 28.0628L291.932 53.7872C284.828 53.787 279.07 48.0285 279.07 40.925C279.07 33.8215 284.828 28.063 291.932 28.0628Z" fill="#FFE599"/>
<path fill-rule="evenodd" clip-rule="evenodd" d="M258.939 28.3831C258.018 28.1735 257.059 28.0629 256.074 28.0629C248.971 28.0629 243.212 33.8215 243.212 40.925C243.212 48.0286 248.971 53.7872 256.074 53.7872C257.539 53.7872 258.948 53.5421 260.26 53.0908C264.811 43.815 262.449 34.6666 258.939 28.3831Z" fill="#FFE599"/>
<path fill-rule="evenodd" clip-rule="evenodd" d="M260.259 53.0908C264.81 43.815 262.448 34.6666 258.938 28.3831C264.663 29.6853 268.936 34.8062 268.936 40.9251C268.936 46.5633 265.308 51.3542 260.259 53.0908Z" fill="white"/>
<circle cx="220.216" cy="40.9251" r="12.8622" fill="#FFE599"/>
<circle cx="184.357" cy="40.925" r="12.8622" fill="white"/>
<path fill-rule="evenodd" clip-rule="evenodd" d="M145.633 53.4674C146.554 53.677 147.513 53.7877 148.498 53.7877C155.602 53.7877 161.36 48.029 161.36 40.9252C161.36 33.8215 155.602 28.0628 148.498 28.0628C147.033 28.0628 145.625 28.3078 144.312 28.7591C139.761 38.0351 142.123 47.1837 145.633 53.4674Z" fill="white"/>
<path fill-rule="evenodd" clip-rule="evenodd" d="M144.313 28.7596C139.762 38.0354 142.124 47.184 145.634 53.4675C139.909 52.1651 135.637 47.0442 135.637 40.9255C135.637 35.2873 139.265 30.4964 144.313 28.7596Z" fill="#FFE599"/>
<path fill-rule="evenodd" clip-rule="evenodd" d="M112.642 53.7873V28.063C119.745 28.0631 125.504 33.8217 125.504 40.9252C125.504 48.0287 119.745 53.7872 112.642 53.7873Z" fill="white"/>
<path fill-rule="evenodd" clip-rule="evenodd" d="M112.642 28.0628L112.642 53.7872C105.538 53.787 99.7797 48.0285 99.7797 40.925C99.7797 33.8215 105.538 28.063 112.642 28.0628Z" fill="#FFE599"/>
<path fill-rule="evenodd" clip-rule="evenodd" d="M79.6476 28.3832C78.7261 28.1736 77.767 28.0629 76.7821 28.0629C69.6785 28.0629 63.9199 33.8215 63.9199 40.925C63.9199 48.0286 69.6785 53.7872 76.7821 53.7872C78.2476 53.7872 79.6559 53.5421 80.9682 53.0906C85.5191 43.815 83.157 34.6667 79.6476 28.3832Z" fill="#FFE599"/>
<path fill-rule="evenodd" clip-rule="evenodd" d="M80.9671 53.0908C85.5181 43.815 83.1559 34.6666 79.6465 28.3831C85.3711 29.6853 89.6437 34.8062 89.6437 40.9251C89.6437 46.5633 86.0159 51.3542 80.9671 53.0908Z" fill="white"/>
<circle cx="40.9247" cy="40.9251" r="12.8622" fill="#FFE599"/>
<defs>
<filter id="filter0_iii_1080_3121" x="-5" y="-5" width="409.573" height="168.566" filterUnits="userSpaceOnUse" color-interpolation-filters="sRGB">
<feFlood flood-opacity="0" result="BackgroundImageFix"/>
<feBlend mode="normal" in="SourceGraphic" in2="BackgroundImageFix" result="shape"/>
<feColorMatrix in="SourceAlpha" type="matrix" values="0 0 0 0 0 0 0 0 0 0 0 0 0 0 0 0 0 0 127 0" result="hardAlpha"/>
<feOffset dx="-5" dy="-5"/>
<feGaussianBlur stdDeviation="10"/>
<feComposite in2="hardAlpha" operator="arithmetic" k2="-1" k3="1"/>
<feColorMatrix type="matrix" values="0 0 0 0 1 0 0 0 0 1 0 0 0 0 1 0 0 0 0.3 0"/>
<feBlend mode="normal" in2="shape" result="effect1_innerShadow_1080_3121"/>
<feColorMatrix in="SourceAlpha" type="matrix" values="0 0 0 0 0 0 0 0 0 0 0 0 0 0 0 0 0 0 127 0" result="hardAlpha"/>
<feOffset dy="4"/>
<feGaussianBlur stdDeviation="75"/>
<feComposite in2="hardAlpha" operator="arithmetic" k2="-1" k3="1"/>
<feColorMatrix type="matrix" values="0 0 0 0 0.6 0 0 0 0 0.521569 0 0 0 0 0.996078 0 0 0 0.2 0"/>
<feBlend mode="normal" in2="effect1_innerShadow_1080_3121" result="effect2_innerShadow_1080_3121"/>
<feColorMatrix in="SourceAlpha" type="matrix" values="0 0 0 0 0 0 0 0 0 0 0 0 0 0 0 0 0 0 127 0" result="hardAlpha"/>
<feOffset dy="10"/>
<feGaussianBlur stdDeviation="25"/>
<feComposite in2="hardAlpha" operator="arithmetic" k2="-1" k3="1"/>
<feColorMatrix type="matrix" values="0 0 0 0 1 0 0 0 0 1 0 0 0 0 1 0 0 0 0.5 0"/>
<feBlend mode="normal" in2="effect2_innerShadow_1080_3121" result="effect3_innerShadow_1080_3121"/>
</filter>
<filter id="filter1_i_1080_3121" x="2.67676" y="2.67712" width="399.22" height="152.212" filterUnits="userSpaceOnUse" color-interpolation-filters="sRGB">
<feFlood flood-opacity="0" result="BackgroundImageFix"/>
<feBlend mode="normal" in="SourceGraphic" in2="BackgroundImageFix" result="shape"/>
<feColorMatrix in="SourceAlpha" type="matrix" values="0 0 0 0 0 0 0 0 0 0 0 0 0 0 0 0 0 0 127 0" result="hardAlpha"/>
<feMorphology radius="10" operator="erode" in="SourceAlpha" result="effect1_innerShadow_1080_3121"/>
<feOffset dy="4"/>
<feGaussianBlur stdDeviation="20"/>
<feComposite in2="hardAlpha" operator="arithmetic" k2="-1" k3="1"/>
<feColorMatrix type="matrix" values="0 0 0 0 1 0 0 0 0 1 0 0 0 0 1 0 0 0 0.3 0"/>
<feBlend mode="normal" in2="shape" result="effect1_innerShadow_1080_3121"/>
</filter>
<linearGradient id="paint0_linear_1080_3121" x1="-1.40768e-06" y1="153.566" x2="107.375" y2="-110.646" gradientUnits="userSpaceOnUse">
<stop offset="0.0685067" stop-color="#EEEEFA"/>
<stop offset="0.56526" stop-color="#EEEEFA"/>
<stop offset="1" stop-color="#EEEEFA" stop-opacity="0"/>
</linearGradient>
<linearGradient id="paint1_linear_1080_3121" x1="40.2465" y1="4.67713" x2="111.226" y2="240.325" gradientUnits="userSpaceOnUse">
<stop offset="0.00312487" stop-color="#0500FF" stop-opacity="0.8"/>
<stop offset="0.442708" stop-color="#93CDFD"/>
<stop offset="0.918636" stop-color="#785EFF"/>
</linearGradient>
</defs>
</svg>
